<svg width="22" height="22" viewBox="0 0 22 22" fill="none" xmlns="http://www.w3.org/2000/svg">
<path d="M11.1468 9.96416C11.0552 9.95499 10.9452 9.95499 10.8443 9.96416C8.66268 9.89083 6.93018 8.10333 6.93018 5.90333C6.93018 3.65749 8.74518 1.83333 11.0002 1.83333C13.246 1.83333 15.0702 3.65749 15.0702 5.90333C15.061 8.10333 13.3285 9.89083 11.1468 9.96416Z" stroke="#E7E7E7" stroke-width="1.375" stroke-linecap="round" stroke-linejoin="round"/>
<path d="M6.56341 13.3467C4.34507 14.8317 4.34507 17.2517 6.56341 18.7275C9.08424 20.4142 13.2184 20.4142 15.7392 18.7275C17.9576 17.2425 17.9576 14.8225 15.7392 13.3467C13.2276 11.6692 9.09341 11.6692 6.56341 13.3467Z" stroke="#E7E7E7" stroke-width="1.375" stroke-linecap="round" stroke-linejoin="round"/>
</svg>
